<?xml version="1.0" encoding="utf-8"?>
<!-- Generator: Adobe Illustrator 23.1.1, SVG Export Plug-In . SVG Version: 6.00 Build 0)  -->
<svg version="1.1" id="Layer_1" xmlns="http://www.w3.org/2000/svg" xmlns:xlink="http://www.w3.org/1999/xlink" x="0px" y="0px"
	 viewBox="0 0 376.2 376.2" style="enable-background:new 0 0 376.2 376.2;" fill='#ebebeb' xml:space="preserve">
<style type="text/css">
	.st0{fill:#e8e8e8;enable-background:new    ;}
</style>
<path id="Subtraction_6" class="st0" d="M188.1,376.2C84.4,376.2,0,291.8,0,188.1S84.4,0,188.1,0s188.1,84.4,188.1,188.1
	S291.8,376.2,188.1,376.2z M188.1,18.2c-93.7,0-169.9,76.2-169.9,169.9S94.4,358,188.1,358S358,281.8,358,188.1
	S281.8,18.2,188.1,18.2L188.1,18.2z M263.6,291.7h-0.7L91.2,102.3v-0.5h49.9l122.5,135.6L263.6,291.7z M156.6,284.2H94.7l11-14
	c6.2-7.9,11.1-16.8,14.4-26.3c3.3-9.5,5-19.5,5-29.6h1.3c0,10.1,1.7,20.1,5,29.6c3.3,9.5,8.1,18.4,14.4,26.3L156.6,284.2
	L156.6,284.2z M260.4,171.8h-1.3c0-10.1-1.7-20.1-5-29.6c-3.3-9.5-8.1-18.4-14.4-26.3l-11-14h61.9l-11,14
	c-6.2,7.9-11.1,16.8-14.4,26.3C262.1,151.7,260.4,161.7,260.4,171.8L260.4,171.8z"/>
</svg>
